<?xml version="1.0" encoding="UTF-8" standalone="no"?>
<!-- Created with Inkscape (http://www.inkscape.org/) -->

<svg
   xmlns:dc="http://purl.org/dc/elements/1.1/"
   xmlns:cc="http://creativecommons.org/ns#"
   xmlns:rdf="http://www.w3.org/1999/02/22-rdf-syntax-ns#"
   xmlns:svg="http://www.w3.org/2000/svg"
   xmlns="http://www.w3.org/2000/svg"
   xmlns:sodipodi="http://sodipodi.sourceforge.net/DTD/sodipodi-0.dtd"
   xmlns:inkscape="http://www.inkscape.org/namespaces/inkscape"
   width="740.80267"
   height="800"
   id="svg4428"
   version="1.1"
   inkscape:version="0.48.4 r9939"
   sodipodi:docname="Новый документ 39">
  <defs
     id="defs4430" />
  <sodipodi:namedview
     id="base"
     pagecolor="#ffffff"
     bordercolor="#666666"
     borderopacity="1.0"
     inkscape:pageopacity="0.0"
     inkscape:pageshadow="2"
     inkscape:zoom="0.35"
     inkscape:cx="939.38558"
     inkscape:cy="862.14072"
     inkscape:document-units="px"
     inkscape:current-layer="layer1"
     showgrid="false"
     fit-margin-top="0"
     fit-margin-left="0"
     fit-margin-right="0"
     fit-margin-bottom="0"
     inkscape:window-width="1920"
     inkscape:window-height="1018"
     inkscape:window-x="-8"
     inkscape:window-y="-8"
     inkscape:window-maximized="1" />
  <metadata
     id="metadata4433">
    <rdf:RDF>
      <cc:Work
         rdf:about="">
        <dc:format>image/svg+xml</dc:format>
        <dc:type
           rdf:resource="http://purl.org/dc/dcmitype/StillImage" />
        <dc:title></dc:title>
      </cc:Work>
    </rdf:RDF>
  </metadata>
  <g
     inkscape:label="Layer 1"
     inkscape:groupmode="layer"
     id="layer1"
     transform="translate(564.38558,-594.5029)">
    <path
       inkscape:connector-curvature="0"
       style="fill:#6d6146;fill-opacity:1;stroke:none"
       d="m -125.6392,902.66579 -180.7781,61.05112 c -38.41271,18.64268 -126.77396,58.69239 -190.16364,88.03949 -9.20107,-6.9534 -23.17258,11.7318 -28.76015,31.6875 -30.09184,107.4708 -37.14922,208.4158 -39.04449,311.059 l 735.97739,0 c 2.46976,-44.7932 5.97731,-88.5319 4.45528,-137.3169 0.69887,-89.1129 -8.27508,-167.5504 -35.20555,-210.1288 -6.81356,-10.7726 -10.94623,-13.1379 -19.96517,-15.266 0,0 -36.909053,-17.1257 -72.298369,-29.9928 C 31.096102,995.44227 14.935239,993.57198 1.9197501,988.54822 -20.42397,979.92392 -64.588099,961.36731 -64.588099,961.36731 -107.88675,944.92476 -103.86481,913.34122 -125.6392,902.66579 z"
       id="path3337" />
    <path
       style="fill:#000000;stroke:none"
       d="m -341.63016,981.61337 c -21.44447,29.84553 -42.35474,60.05463 -63.09623,90.38903 23.14308,-28.6221 42.7066,-59.8046 63.09623,-90.38903 z"
       id="path4129"
       inkscape:connector-curvature="0"
       sodipodi:nodetypes="ccc" />
    <path
       style="fill:#000000;stroke:none"
       d="m -387.70507,1089.9041 -0.58695,5.8695 c -0.24179,2.4178 2.32883,5.0255 4.69554,5.5759 l 12.61926,2.9347 c 3.03436,-2.1521 1.42601,-5.3031 -0.88043,-6.4563 z"
       id="path4131"
       inkscape:connector-curvature="0"
       sodipodi:nodetypes="csscsc" />
    <path
       style="fill:#000000;stroke:none"
       d="m -367.45558,1113.3818 -32.28179,19.6626 c -1.5337,0.9341 -3.1003,2.9594 -2.64125,4.6955 l 61.92237,234.1898 4.98898,20.8365 -2.93468,-21.4234 -60.16156,-230.6682 c -0.63087,-2.4188 1.64287,-5.2193 3.81512,-6.4563 l 21.12992,-12.0323 c 3.11296,-1.7727 4.10859,-5.8694 6.16289,-8.8042 z"
       id="path4133"
       inkscape:connector-curvature="0"
       sodipodi:nodetypes="csscccsssc" />
    <path
       inkscape:connector-curvature="0"
       style="fill:#000000;stroke:none"
       d="m -500.24017,1053.7721 c -3.04357,10.0991 -8.57883,19.7547 -9.12876,30.2881 -1.27116,24.3471 2.12118,48.7292 3.73623,73.0559 0.59912,9.0244 2.71808,17.933 2.90169,26.9755 0.3708,18.2623 -1.62909,36.5234 -1.24539,54.7855 0.30888,14.7029 1.81213,29.3595 3.32537,43.9876 3.85337,37.2492 8.35322,74.4353 12.63392,111.6382 l 12.68528,0 c -1.42716,-5.662 -2.87757,-11.3133 -4.14709,-17.0121 -4.58436,-20.5788 -9.67335,-41.0634 -13.28875,-61.8343 -3.44579,-19.7965 -7.19731,-39.6849 -7.88336,-59.7673 -0.84161,-24.6356 4.20169,-49.2432 3.32537,-73.8776 -0.37819,-10.6322 -6.08236,-20.5288 -7.0616,-31.1226 -2.07661,-22.4648 -3.04328,-45.1105 -2.08002,-67.6506 0.42869,-10.03 4.15194,-19.6439 6.22711,-29.4663 z"
       id="path4135" />
    <path
       style="fill:#000000;stroke:none"
       d="m -37.891982,1014.3412 26.977022,51.0488 c 1.4351722,2.7158 1.5023066,7.7569 -1.24511,9.1306 l -41.503034,20.7515 18.676349,14.9411 31.127317,-14.9411 c 5.6469324,-2.7105 3.89396015,-12.6824 2.0751271,-18.6763 -0.997854,-3.2883 -6.6404724,-7.8856 -6.6404724,-7.8856 l -1.6601177,-3.7353 z"
       id="path4137"
       inkscape:connector-curvature="0"
       sodipodi:nodetypes="cssccssccc" />
    <path
       inkscape:connector-curvature="0"
       style="fill:#000000;stroke:none"
       d="m -10.919603,1140.0911 -97.514867,254.4118 57.17366,0 c 12.231487,-48.4109 7.969027,-97.0629 6.727821,-147.3316 l 21.172073,-1.6563 25.730064,-86.7426 c 1.2298251,-4.1457 2.1985903,-10.9312 -1.66911596,-12.8651 l -11.61963504,-5.8162 z"
       id="path4139" />
    <path
       inkscape:connector-curvature="0"
       style="fill:#000000;stroke:none"
       d="m 94.915197,1112.7048 c -5.94879,22.55 -12.253098,45.0098 -17.846692,67.6505 -3.123969,12.6447 -5.527373,25.4567 -8.294222,38.1843 0,9.4073 0.394918,18.8218 0,28.2208 -0.989021,23.5384 -1.824298,47.1093 -4.159951,70.5523 -1.404728,14.0995 -6.797297,27.7535 -7.048784,41.9205 -0.170507,9.6031 5.283445,18.631 5.816206,28.2209 0.130571,2.3503 0.177491,4.6973 0.192611,7.0488 l 38.492335,0 c -3.864834,-9.1026 -7.613596,-18.2422 -10.053196,-27.7972 -5.975374,-23.4036 -10.877952,-47.284 -12.454173,-71.3868 -1.761222,-26.9322 1.660776,-53.9623 2.490835,-80.9393 0.41505,-13.281 -0.422528,-26.6582 1.245437,-39.8405 2.632828,-20.8081 7.745972,-41.2211 11.619594,-61.8343 z"
       id="path4141" />
    <path
       inkscape:connector-curvature="0"
       style="fill:#000000;stroke:none"
       d="m -125.49799,902.74283 -13.66107,156.42187 25.3192,-34.8589 c 13.46279,-18.5389 22.691884,-17.7667 33.61347,-16.1904 10.25969,1.4807 17.050784,3.9377 34.447964,0.8345 l 4.570809,0 2.490835,4.558 c 7.332195,-1.7985 14.712954,-3.3962 21.993791,-5.3925 9.8784959,-2.7086 19.4611728,-6.5232 29.466336,-8.71792 5.869536,-1.28751 11.813356,-2.19426 17.769665,-3.01725 C 19.999942,993.71981 10.306416,991.78532 1.9197501,988.54822 -20.42397,979.92392 -64.588099,961.36731 -64.588099,961.36731 -107.79012,944.96147 -103.88679,913.48736 -125.49799,902.74283 z"
       id="path4143" />
    <path
       style="fill:#dfe7e9;fill-opacity:1;stroke:none"
       d="m -126.80756,895.37753 -192.51331,78.06327 -9.98897,56.352 11.74799,66.328 14.67536,-14.6753 c 7.77452,104.165 9.67134,208.0164 7.5624,312.2273 l 136.85464,0 c 0.90319,-116.5807 17.51777,-230.874 36.36105,-345.6867 1.36956,-9.978 1.73571,-20.1405 4.10859,-29.9286 2.3472,-9.6821 8.71461,-18.29988 9.9762,-28.18233 1.14638,-8.97991 -2.53373,-17.94467 -2.94023,-26.98832 -0.37779,-8.40662 2.51409,-17.04982 0.59065,-25.24217 -3.45467,-14.7142 -10.95626,-28.18055 -16.43437,-42.26715 z"
       id="path4148"
       inkscape:connector-curvature="0" />
    <path
       style="fill:#796e76;fill-opacity:1;stroke:none"
       d="m -126.80756,896.20759 -191.13948,77.51118 -1.33529,4.93031 c 1.84936,5.26937 2.84134,10.05444 12.53121,19.73409 2.69203,2.68923 6.86521,4.97773 10.29716,9.32143 4.7988,6.0736 7.20467,13.8786 11.69663,20.0293 4.56153,6.2458 10.31553,11.4275 19.0151,13.9949 l -34.85882,39.8534 c 5.11861,-1.5218 10.09247,-3.6685 15.35587,-4.5708 4.50174,-0.7717 9.41011,1.1929 13.68671,-0.4109 3.94823,-1.4806 6.14239,-5.8269 9.55248,-8.3071 2.70612,-1.9679 5.81271,-3.3215 8.71794,-4.9816 0.41501,-1.6601 0.83043,-3.3216 1.24539,-4.9817 2.55432,7.5969 8.23449,9.7823 14.11047,13.6996 12.50648,107.4911 13.67977,214.9821 44.48834,322.4732 l 34.9744,0 c 0.0429,-5.4775 0.12067,-10.9523 0.23115,-16.4216 -3.76848,-13.0938 -12.97149,-24.5115 -15.36873,-37.9402 -2.27127,-12.7231 -5.13056,-20.6665 -8.29422,-28.6318 -6.3555,-16.0016 -13.69961,-49.8038 -13.69961,-49.8039 l -2.90165,-49.3929 c -0.87895,-14.9405 -2.70181,-20.4459 -5.81625,-26.9755 -4.69961,-9.853 -3.62066,-16.7961 -1.24544,-23.6629 2.49215,-7.2048 1.77837,-12.2417 1.19408,-17.4744 -1.44754,-12.9644 0.86305,-27.3694 1.2968,-38.5566 1.94932,-11.5873 0.67508,-16.0133 -0.83458,-19.9138 2.35924,-3.8786 3.32208,-6.8252 4.57081,-9.9633 1.09897,2.7152 7.79067,-0.7875 12.86503,-2.4909 l -26.15374,-43.9876 c 23.68805,1.4142 43.00049,19.8204 62.68168,31.9572 3.15758,0.9642 5.00254,3.2281 12.44135,-0.8346 4.50462,-2.4603 9.07244,-1.9613 13.64822,-0.8859 0.5812,-3.5689 1.1603,-7.1383 1.74615,-10.708 1.3696,-9.978 1.73571,-20.1406 4.10859,-29.9286 2.3472,-9.6822 8.71461,-18.2999 9.9762,-28.18237 1.14638,-8.9799 -2.53373,-17.94466 -2.94023,-26.98832 -0.37775,-8.40662 2.51409,-17.04982 0.59065,-25.24216 -3.45471,-14.71421 -10.9563,-28.18055 -16.43437,-42.26716 z"
       id="path4150"
       inkscape:connector-curvature="0"
       sodipodi:nodetypes="cccsscccsscccccccssccssscccccccccsscsc" />
    <path
       inkscape:connector-curvature="0"
       style="fill:#534b51;fill-opacity:1;stroke:none"
       d="m -108.6399,978.76464 c -19.86784,35.56136 -39.11393,76.12016 -58.53459,115.25886 -0.65076,1.3114 -2.3193,1.6895 -4.35256,1.04 1.6339,1.4504 3.54765,1.3086 4.35256,0 22.85269,-37.1549 40.26873,-76.0821 58.63731,-115.66974 -0.0345,-0.21011 -0.0668,-0.41898 -0.10272,-0.62912 z"
       id="path4155" />
    <path
       inkscape:connector-curvature="0"
       style="fill:#571014;fill-opacity:1;stroke:none"
       d="m -224.24544,1015.9474 c -4.84538,4.937 -13.6941,5.8615 -23.17505,6.1629 l -7.34411,7.9219 8.80784,2.9402 2.0543,27.0011 c -2.4456,7.4346 -5.78034,14.6333 -7.34411,22.302 -3.53837,17.3514 -7.1059,34.8361 -7.92191,52.5258 -1.92927,41.8242 -2.12389,83.7787 -0.29528,125.6074 1.30645,29.8845 5.65457,59.5815 9.69369,89.2206 2.0497,15.0409 4.8981,29.9505 7.70361,44.8736 l 68.84461,0 c -2.08034,-3.9431 -4.30745,-7.8239 -5.82906,-12.0048 -8.58014,-23.5753 -16.03942,-47.5515 -24.06095,-71.3226 -8.02154,-23.7711 -8.8078,-26.405 -8.8078,-27.5789 0,-1.1739 -1.75531,-13.7895 -1.16836,-28.1696 0.58692,-14.38 1.70831,-28.7482 1.75897,-43.1402 0.0472,-13.4107 -0.77463,-26.8198 -1.46368,-40.2129 -0.87628,-17.0327 -2.29317,-34.0328 -3.23552,-51.062 -0.42729,-7.7219 -0.93976,-15.4546 -0.87308,-23.188 0.0312,-3.6404 1.54393,-7.228 1.16836,-10.8492 -1.00541,-9.6951 -3.51613,-19.1734 -5.27695,-28.7601 l 7.62658,-22.8926 3.51798,-1.1812 -14.38008,-18.1934 z"
       id="path4160" />
    <path
       inkscape:connector-curvature="0"
       style="fill:#33090c;fill-opacity:1;stroke:none"
       d="m -239.6013,1191.1404 c 2.35184,27.2537 4.99523,54.4842 7.06164,81.761 1.39245,18.3803 1.30916,36.8854 3.31256,55.2092 2.42682,22.1965 5.64561,44.2925 8.85915,66.3923 l 5.17428,0 c -1.87849,-11.3263 -3.75279,-22.6512 -5.31553,-34.0243 -2.5788,-18.7681 -4.8751,-37.5795 -6.63793,-56.4418 -2.38837,-25.5553 -2.98958,-51.2673 -5.80339,-76.7793 -1.34162,-12.164 -4.43728,-24.0813 -6.65078,-36.1171 z"
       id="path4162" />
    <path
       style="fill:#bd947b;fill-opacity:1;stroke:none"
       d="m -406.23158,730.46028 0.41501,7.47054 c -1.01047,1.07254 -0.53021,4.82836 -0.20752,8.30062 -0.7935,1.82985 -1.14232,4.8825 -0.83006,9.75322 -0.007,2.85138 -1.69533,4.78509 1.03758,9.13067 -0.84415,3.34238 -3.38408,5.64844 0.41505,11.82837 -1.04128,2.48638 -4.7386,4.22906 0.62254,8.50813 -0.68667,2.21433 -2.01626,3.22314 -0.62254,9.33818 l 10.37576,21.58159 c -0.54973,3.62491 3.35968,8.98389 8.55541,15.38248 -1.04141,4.29474 -0.92214,6.39964 -0.10223,6.9574 1.33665,-0.0828 2.58616,-0.32404 4.72402,-1.48459 l 0.51879,5.81043 c -1.5023,0.55484 -2.906,3.21044 -0.31126,11.72461 -0.22384,3.70654 -0.014,10.01607 0.31126,17.01625 -3.16312,18.90524 2.08787,31.31191 17.01628,40.05045 10.73427,20.78718 20.10334,42.42787 37.35274,59.14186 5.20037,8.51503 12.2989,15.79211 21.99662,21.37407 12.67735,13.35024 30.24142,22.53244 61.63202,19.92144 3.62497,2.01 6.35094,5.6182 14.73362,-0.83 l 53.33143,-43.99327 c 16.06969,-13.25593 32.40361,-28.68335 41.29551,-43.78572 3.45602,-5.86986 5.07961,-12.62695 5.18788,-17.84632 0.12864,-6.20173 -0.7672,-9.53307 -2.07513,-12.45092 -1.24716,-16.0788 -2.30102,-31.84836 -0.83006,-43.57821 l 10.99829,-21.16656 6.848,-41.29553 -5.60289,-33.825 -49.38866,-5.81043 -54.16148,-91.0992 -121.60396,10.79079 z"
       id="path4164"
       inkscape:connector-curvature="0"
       sodipodi:nodetypes="ccccccccccccccccccccsssccccccccc" />
    <path
       style="fill:#965e49;fill-opacity:1;fill-rule:nonzero;stroke:none"
       d="m -340.44926,922.2044 c 3.52648,0.76055 5.63247,4.92894 9.13069,5.81043 5.51488,1.38965 11.44732,-0.091 17.01627,-1.2451 6.16926,-1.27846 11.9657,-3.96432 17.84629,-6.22546 2.66204,-1.02357 5.13611,-2.56232 7.88558,-3.32024 7.67654,-2.11613 25.4206,-3.86497 25.4206,-3.86497 l -27.91078,31.67202 -34.0325,2.38643 -17.43128,-9.85698 -3.73529,-14.52607 c 0,0 3.89791,-1.24253 5.81042,-0.83006 z"
       id="path4293"
       inkscape:connector-curvature="0"
       sodipodi:nodetypes="ssssscccccs" />
    <path
       style="fill:#9b6b4e;fill-opacity:1;stroke:none"
       d="m -361.82332,768.64309 c 30.53207,-13.22847 40.84254,-34.87868 97.73969,-14.52607 -47.91774,-13.75567 -73.36065,4.5556 -97.73969,14.52607 z"
       id="path4168"
       inkscape:connector-curvature="0"
       sodipodi:nodetypes="ccc" />
    <path
       style="fill:#9b6b4e;fill-opacity:1;stroke:none"
       d="m -405.75354,765.03183 c 9.09885,7.13794 19.65259,11.38566 30.08077,16.1409 -13.64048,-4.10831 -19.56886,-7.67297 -30.08077,-16.1409 z"
       id="path4170"
       inkscape:connector-curvature="0"
       sodipodi:nodetypes="ccc" />
    <path
       style="fill:#9b6b4e;fill-opacity:1;stroke:none"
       d="m -372.00437,783.9607 c 3.15483,0.36684 6.69894,0.38195 9.68453,-0.88041 4.53601,-1.91791 7.83878,-6.03673 12.17906,-8.36392 10.56562,-5.66512 21.02281,-11.86126 32.42851,-15.55396 7.58487,-2.45567 15.82885,-3.33402 23.77117,-2.64124 8.06529,0.70352 15.55394,4.49989 23.33093,6.74983 -7.63023,-1.51627 -15.11872,-4.20877 -22.89074,-4.5488 -8.05682,-0.35248 -16.35713,0.12142 -24.0646,2.49451 -11.12677,3.42587 -21.29562,9.43925 -31.69488,14.67354 -4.2934,2.161 -7.79593,5.87615 -12.32578,7.48351 -3.278,1.16316 -6.94545,1.34508 -10.4182,0.58694 z"
       id="path4172"
       inkscape:connector-curvature="0"
       sodipodi:nodetypes="csssscssssc" />
    <path
       style="fill:#9b6b4e;fill-opacity:1;stroke:none"
       d="m -403.99272,777.65108 c 1.51627,1.41844 2.78373,3.16191 4.54883,4.25533 3.81203,2.36142 8.04405,3.96633 12.0323,6.01615 4.7674,2.4503 9.10152,5.93536 14.23331,7.48351 3.8424,1.15916 8.22865,1.72083 12.03231,0.4402 6.32012,-2.12787 11.55504,-6.67067 17.16808,-10.27148 4.76223,-3.05502 8.9645,-6.99046 13.93984,-9.68454 6.28019,-3.40064 12.80184,-6.52683 19.66258,-8.51065 5.44339,-1.57399 11.22549,-2.49685 16.87456,-2.0543 5.1984,0.40725 10.21195,2.40902 14.96703,4.5488 2.21585,0.99714 3.71729,3.13036 5.57594,4.69553 -1.90758,-1.22279 -3.59864,-2.87945 -5.7227,-3.66838 -4.79357,-1.78048 -9.71637,-3.6474 -14.82027,-3.96186 -5.41344,-0.33353 -10.92499,0.56741 -16.14089,2.0543 -5.70733,1.62697 -11.00125,4.49289 -16.28766,7.19003 -6.71183,3.42442 -13.18694,7.29933 -19.66253,11.1519 -5.11968,3.04588 -9.40531,7.83424 -15.11375,9.5378 -4.1415,1.23595 -8.78598,0.11047 -12.91273,-1.17388 -5.61846,-1.7486 -10.57256,-5.16918 -15.84742,-7.77698 -3.4315,-1.69647 -7.14591,-2.92575 -10.27148,-5.13574 -1.81526,-1.28352 -2.8369,-3.42383 -4.25535,-5.13574 z"
       id="path4174"
       inkscape:connector-curvature="0"
       sodipodi:nodetypes="cssssssssscsssssssssc" />
    <path
       style="fill:#9b6b4e;fill-opacity:1;stroke:none"
       d="m -403.01512,786.69692 c 5.36167,4.26237 12.5863,11.42086 19.09144,12.9697 -6.92101,-0.62943 -14.6798,-7.57773 -19.09144,-12.9697 z"
       id="path4176"
       inkscape:connector-curvature="0"
       sodipodi:nodetypes="ccc" />
    <path
       style="fill:#9b6b4e;fill-opacity:1;stroke:none"
       d="m -329.13966,788.97959 c 19.66804,-14.98251 40.40579,-20.27491 64.74477,7.05552 -17.14151,-24.38805 -40.9515,-28.69421 -64.74477,-7.05552 z"
       id="path4178"
       inkscape:connector-curvature="0"
       sodipodi:nodetypes="ccc" />
    <path
       style="fill:#9b6b4e;fill-opacity:1;stroke:none"
       d="m -331.35867,742.43457 c 22.01901,-7.63158 39.34972,-7.99616 63.09628,-1.46736 -24.99508,-4.6039 -44.56349,-2.69149 -63.09628,1.46736 z"
       id="path4180"
       inkscape:connector-curvature="0"
       sodipodi:nodetypes="ccc" />
    <path
       style="fill:#000000;stroke:none"
       d="m -361.87965,834.14423 c -11.53076,-10.30382 -24.45656,-19.03012 -36.11872,-34.30583 -2.69823,-3.53429 -5.11487,-2.03437 -7.97527,-6.19316 -1.70351,0.10546 -3.87444,-0.28411 -6.08951,-3.96185 2.49745,5.52106 1.84932,3.48478 4.98902,8.51065 -1.72137,-0.0974 -2.97647,-1.61704 -4.8423,-4.40206 1.06075,2.03901 0.37869,2.33515 3.52164,6.45636 -0.88401,0.87681 0.84304,4.36469 1.76086,7.0433 l -3.6684,-3.52165 c 1.00759,2.70444 2.95321,3.99485 5.13574,5.72268 -2.22221,0.8886 -2.69388,0.16984 -4.98898,-0.14673 2.69856,1.14216 3.90222,1.8843 6.7498,2.4945 3.6608,3.0456 8.41514,4.20129 12.4725,6.6031 9.50124,5.62439 19.21445,10.74111 29.05362,15.70069 z"
       id="path4182"
       inkscape:connector-curvature="0"
       sodipodi:nodetypes="csccccccccccsc" />
    <path
       inkscape:connector-curvature="0"
       style="fill:#9b6b4e;fill-opacity:1;stroke:none"
       d="m -382.11812,884.58798 c 0.7939,11.97317 6.55201,20.65616 17.80816,27.24511 1.81686,3.51837 3.59625,7.05321 5.37971,10.59246 10.26569,11.6115 19.10064,27.44953 30.36505,40.40545 -2.73209,-5.56928 -5.42125,-10.9673 -9.53962,-15.70253 3.89376,-0.414 7.89101,-0.79349 8.3584,-2.3496 -5.30074,-8.18405 -4.48133,-9.7285 -5.43103,-13.19886 -7.03251,-6.08795 -7.88747,-8.47484 -9.24433,-11.15739 -10.79685,0.42674 -26.44911,-8.61474 -24.35627,-22.89257 -7.82955,-2.46487 -10.66283,-6.21977 -13.34007,-12.94207 z"
       id="path4193" />
    <path
       inkscape:connector-curvature="0"
       style="fill:#9b6b4e;fill-opacity:1;stroke:none"
       d="m -163.88762,748.25973 c -13.79353,22.2987 -29.1556,47.96531 -32.76603,54.63145 -6.70493,12.37959 -15.5919,23.80052 -20.11928,37.13141 -2.89722,8.53079 -3.23014,18.11751 -1.65626,26.98832 1.55814,8.78251 9.04655,15.73603 10.78506,24.48464 2.61894,13.17944 11.08523,30.2783 2.07993,40.25137 -11.22081,12.4268 -40.56397,2.33971 -34.65339,21.1721 -3.41169,3.48856 -13.81527,2.8856 -20.13211,6.22708 -10.82314,5.72525 -15.81767,14.75998 -23.44466,22.19925 1.68428,-10.23079 3.9664,-18.55276 6.4325,-22.40468 8.01521,-12.51934 3.8136,-14.6658 3.9417,-20.33753 3.98041,-2.06913 7.26831,-5.51617 12.23588,-5.6108 4.45923,3.45954 8.8343,6.96411 15.98502,9.34705 l -4.77624,-12.45417 c -1.55095,-4.04597 -1.20558,-8.93694 -3.73623,-12.45417 -1.87976,-2.61256 -5.66361,-3.04904 -8.49969,-4.57081 -4.21949,0.9684 -8.69251,1.18118 -12.65956,2.91453 -11.48134,5.01661 -21.38774,13.68219 -33.40804,17.21757 -8.49522,2.49861 -17.85488,5.01218 -26.34636,-0.60345 6.57133,5.67425 18.22597,4.26916 26.96265,1.84887 12.40347,-3.43609 22.59331,-12.37427 34.24257,-17.8467 3.26822,-1.5353 6.91563,-2.06955 10.3742,-3.10713 -21.51181,10.92923 -29.71552,34.30559 -64.54345,32.77887 7.22578,5.93291 10.6588,21.99883 15.98502,32.99714 -3.31991,3.55227 -6.64348,0.92049 -9.96334,-0.56493 4.44973,5.32349 9.90175,9.99744 16.6013,13.85366 12.67735,13.35023 30.2383,22.52483 61.6289,19.91383 3.62493,2.01 6.35689,5.6265 14.73957,-0.8217 l 53.33464,-44.00047 c 16.06969,-13.25594 32.39946,-28.67983 41.29136,-43.7822 3.45606,-5.86985 5.07887,-12.62733 5.18709,-17.8467 0.12869,-6.20173 -0.772,-9.53632 -2.07993,-12.45417 -1.24716,-16.07881 -2.29272,-31.84692 -0.82172,-43.57677 l 10.99049,-21.15925 6.85617,-41.3042 -5.61077,-33.81886 -44.43699,-5.23845 z"
       id="path4198" />
    <path
       style="fill:#000000;stroke:none"
       d="m -297.90298,994.81957 c 8.23531,-0.43947 16.39021,0.4802 26.26566,-6.30963 15.12879,-10.4017 20.44514,-17.99955 30.66769,-26.99932 -9.978,9.29324 -10.64466,15.7075 -29.93402,27.87973 -14.05598,8.86979 -19.73053,5.1856 -26.99933,5.42922 z"
       id="path4200"
       inkscape:connector-curvature="0"
       sodipodi:nodetypes="cscsc" />
    <path
       style="fill:#9b6b4e;fill-opacity:1;stroke:none"
       d="m -335.61399,889.75697 c 4.65344,-7.06073 10.10127,-12.72669 17.46153,-12.17904 3.76055,0.27981 10.87035,-0.23757 13.79312,9.39107 1.42075,4.68043 -2.85523,13.22425 -14.67356,13.6464 -20.87,0.74546 -24.59416,13.29284 -24.50479,15.84743 5.84426,2.96124 17.02128,-10.07584 25.53194,-15.11375 -6.35521,6.11275 -7.23593,9.45175 -22.15702,18.34193 7.43207,14.0011 37.81084,0.2992 48.42268,-3.81512 -4.48239,-13.10487 -6.4313,-18.60924 -9.09757,-26.26565 12.50951,8.24412 18.76082,13.98253 27.14605,25.53197 l 11.28158,-2.16619 c -3.92564,-5.95997 -8.86696,-9.51157 -13.77607,-13.38777 -9.24578,-3.72274 -17.27586,-12.13232 -23.62441,-17.31478 -7.31112,-4.43577 -13.60179,-6.63461 -19.3691,-6.89657 -4.56781,-0.20748 -9.17334,-2.49817 -14.23336,1.90756 -3.59892,3.13357 -4.00152,7.89265 -2.20102,12.47251 z"
       id="path4202"
       inkscape:connector-curvature="0"
       sodipodi:nodetypes="cssscccccccccssc" />
    <path
       style="fill:#000000;stroke:none"
       d="m -271.19712,900.90887 c 12.3683,2.88864 19.36096,6.07732 24.50484,16.28764 -7.3928,-10.75616 -15.26885,-12.72448 -24.50484,-16.28764 z"
       id="path4204"
       inkscape:connector-curvature="0"
       sodipodi:nodetypes="ccc" />
    <path
       style="fill:#000000;stroke:none"
       d="m -380.44165,855.71435 c 3.63388,1.14348 7.4732,1.15714 11.88554,-1.98093 -4.23279,3.51433 -6.93148,4.2028 -11.88554,1.98093 z"
       id="path4206"
       inkscape:connector-curvature="0"
       sodipodi:nodetypes="ccc" />
    <path
       style="fill:#000000;stroke:none"
       d="m -386.31012,831.26083 c 1.02916,-3.38774 2.18865,-5.90697 3.6315,-6.53674 l -1.4007,-0.51879 c -1.06696,1.22005 -1.71353,3.91155 -2.2308,7.05553 z"
       id="path4208"
       inkscape:connector-curvature="0"
       sodipodi:nodetypes="cccc" />
    <path
       style="fill:#b18164;fill-opacity:1;stroke:none"
       d="m -338.40195,822.25866 c 1.78432,7.23112 2.85732,14.69934 0,23.47767 9.55868,-2.02644 24.91508,7.42867 42.25979,12.03231 25.23679,6.69836 33.6442,-17.32329 48.12925,-22.59726 -8.0053,-10.32587 -5.31483,-13.52124 -7.04332,-19.66255 l -43.58042,-18.63541 z"
       id="path4210"
       inkscape:connector-curvature="0"
       sodipodi:nodetypes="ccscccc" />
    <path
       style="fill:#000000;stroke:none"
       d="m -331.21192,820.93804 c -2.55994,2.23113 -4.25954,6.33786 -7.63023,6.74983 -2.50825,0.30656 -5.16754,-2.64206 -5.57597,-5.13574 -0.65779,-4.01588 0.99419,-8.23285 2.78796,-11.88557 1.02428,-2.08578 3.52168,-3.03253 5.2825,-4.5488 -0.44019,0.73368 -0.88043,1.46735 -1.32062,2.20103 2.69014,-2.54341 5.26549,-5.21406 8.07047,-7.63024 2.14205,-1.84513 4.37413,-3.60306 6.7498,-5.13574 2.18799,-1.41161 4.64431,-2.36174 6.89656,-3.66839 4.15757,-2.41202 7.63533,-6.43341 12.32578,-7.48351 5.59179,-1.25189 11.76935,-1.04028 17.16808,0.88041 5.23497,1.86244 9.29664,6.18064 13.35293,9.97801 2.89993,2.71484 4.45556,6.65636 7.33676,9.39107 2.95284,2.8027 6.83723,4.45298 9.978,7.04331 1.62959,1.34397 2.8369,3.13035 4.25535,4.69553 -3.08144,0.29347 -6.30147,1.84005 -9.24433,0.88041 -6.40936,-2.09 -11.55583,-7.03533 -17.755,-9.68454 -5.30748,-2.26815 -10.81155,-4.82799 -16.58113,-4.989 -5.17153,-0.14433 -10.16696,2.17842 -14.96699,4.10859 -4.50914,1.81319 -8.73519,4.32809 -12.76601,7.0433 -3.04923,2.05401 -5.59233,4.77443 -8.36391,7.19004 z"
       id="path4212"
       inkscape:connector-curvature="0"
       sodipodi:nodetypes="ssssccsssssssscssssss" />
    <path
       style="fill:#000000;stroke:none"
       d="m -315.95145,835.61159 c 10.73908,-22.2805 26.78301,-23.57222 46.51515,-10.27148 -10.57416,-14.22837 -37.75189,-15.96381 -46.51515,10.27148 z"
       id="path4214"
       inkscape:connector-curvature="0"
       sodipodi:nodetypes="ccc" />
    <path
       style="fill:#000000;stroke:none"
       d="m -323.28821,827.10093 c -3.76577,8.69626 -4.56748,7.41827 -2.20101,15.7007 4.99855,-6.22836 4.22039,-8.52319 2.20101,-15.7007 z"
       id="path4216"
       inkscape:connector-curvature="0"
       sodipodi:nodetypes="ccc" />
    <path
       style="fill:#dccdb5;fill-opacity:1;stroke:none"
       d="m -304.65286,841.27344 c 10.21754,1.8759 17.75701,-0.52039 24.59289,-4.03903 3.8753,-1.99472 6.9019,-4.76516 8.60955,-6.64801 l -15.14863,-2.43831 -12.29525,1.66013 -7.05552,2.54206 -3.89092,3.00897 -0.20753,3.63152 z"
       id="path4230"
       inkscape:connector-curvature="0"
       sodipodi:nodetypes="csccccccc" />
    <path
       style="fill:#000000;stroke:none"
       d="m -308.61465,833.85076 c -2.03478,1.42986 -3.88916,3.19115 -4.25531,5.57595 2.94467,0.90935 5.05172,1.73321 8.3639,1.90756 -3.48154,-1.5428 -7.48976,-4.32291 -3.08145,-7.19004 13.1339,-8.54211 26.7905,-4.89959 38.88488,-3.37491 -18.05661,-4.24718 -30.49344,-3.53707 -39.91202,3.08144 z"
       id="path4218"
       inkscape:connector-curvature="0"
       sodipodi:nodetypes="sccscs" />
    <path
       style="fill:#000000;stroke:none"
       d="m -226.58955,812.42739 c -11.28236,4.39335 -22.38054,9.20402 -33.45566,14.0866 -0.1339,1.66697 -0.11064,1.85839 1.32063,2.4945 11.74133,-3.29183 22.35193,-4.26269 34.33608,-4.98901 -11.16802,1.07211 -21.25888,2.13192 -33.30894,5.57595 2.38439,7.35593 18.14129,6.74716 24.06461,7.92372 -9.44911,-1.63822 -15.33894,-2.37652 -24.04558,-3.26761 -4.66482,-0.0288 -10.164,6.33634 -14.10567,9.57723 16.02122,-1.96256 20.80399,1.69669 34.04266,9.83128 -16.3142,-10.50962 -24.35225,-11.52872 -35.80348,-7.92372 -3.12064,0.98242 -5.57593,3.42383 -8.3639,5.13574 4.94473,-2.14208 9.60499,-3.04147 14.52679,-3.52164 -4.65976,1.04437 -9.17403,2.65877 -13.35292,4.10859 7.84881,-1.57851 15.48019,-2.08845 22.89074,-2.4945 -6.56184,0.70301 -12.65574,1.92352 -18.63539,3.22817 5.45313,0.27815 10.94726,0.75331 15.99414,1.17389 -10.27223,0.93229 -20.30677,-0.17114 -29.7873,-1.17389 8.20592,-0.39297 13.038,-4.99835 19.22238,-9.24433 6.17747,-5.4356 8.91581,-9.19385 9.46443,-16.87458 11.4753,-5.08163 23.27292,-9.1635 34.99638,-13.64639 z"
       id="path4232"
       inkscape:connector-curvature="0"
       sodipodi:nodetypes="cccccccccscccccccccc" />
    <path
       style="fill:#000000;stroke:none"
       d="m -147.97881,766.46418 c 3.84576,-1.0953 24.49576,-5.35346 26.14692,17.95007 0.13299,1.87697 -0.12338,3.92692 -1.09309,5.57901 -2.97368,8.10963 -1.61719,15.42908 -1.70836,23.7844 -0.0407,3.7209 -2.40315,7.44589 -5.18788,10.58328 -4.58087,5.16104 -4.29976,1.43514 -2.17891,-0.93382 2.87216,-3.20811 4.64177,-4.64434 5.18788,-7.57431 2.39108,-12.82844 0.92657,-15.76699 0.9338,-23.65674 0.0206,-22.24549 -13.6828,-25.65751 -22.10036,-25.73189 z"
       id="path4234"
       inkscape:connector-curvature="0"
       sodipodi:nodetypes="cscsssssc" />
    <path
       style="fill:#000000;stroke:none"
       d="m -154.20428,772.79339 c -2.69158,2.04148 -2.88801,7.42278 -2.28265,12.96971 0.19236,1.76253 1.87598,6.35804 2.49018,11.62086 0.87562,7.50297 -3.45139,7.50857 -8.19685,6.01794 4.05128,3.42566 4.51242,10.9327 4.98035,18.98765 0.16011,2.75629 -0.77895,5.58886 -2.49017,8.19685 -1.51862,2.31446 -2.11236,5.94193 3.83902,2.6977 1.60507,-0.87497 4.7525,-2.83627 4.77283,-3.52776 0.15839,-5.38057 1.16721,-7.22602 3.00901,-8.8194 2.26618,-1.96051 5.58305,-0.64134 8.81939,-1.66012 8.94058,-2.81446 3.67904,-8.7354 3.52776,-13.17722 -0.34159,-10.02824 -5.10115,-11.91162 -9.85697,-14.00729 -4.65294,-2.05032 -7.62879,-0.976 -8.50816,-1.4526 -0.85762,-0.46482 -1.62577,-4.63227 -0.31126,-5.08413 4.12498,-1.41792 4.10986,-3.68259 3.52776,-6.74424 -0.94469,-4.96871 -2.17386,-4.56709 -3.32024,-6.01795 z"
       id="path4236"
       inkscape:connector-curvature="0"
       sodipodi:nodetypes="csscsssssssssssc" />
    <path
       style="fill:#dccdb5;fill-opacity:1;stroke:none"
       d="m -375.89102,835.0024 c -0.30724,0.007 -0.61386,0.02 -0.92443,0.0385 l -0.10271,-0.0128 -3.23552,0.51357 c -1.23734,0.40726 -1.4065,1.426 -1.6948,1.68196 l 0.57776,5.81622 c 2.2838,4.22759 13.4869,1.85899 21.89107,0.64197 0.28045,-2.31071 -0.17486,-5.66675 -1.20098,-5.836 -5.21545,-1.52721 -9.96831,-2.96822 -15.31039,-2.8434 z"
       id="path4265"
       inkscape:connector-curvature="0"
       sodipodi:nodetypes="scccccccs" />
    <path
       style="fill:#000000;stroke:none"
       d="m -380.29218,835.56677 c -4.82267,1.18555 -7.47945,3.58815 -11.25771,7.10739 3.31539,-2.36472 6.72441,-4.22366 9.80512,-5.44727 z"
       id="path4184"
       inkscape:connector-curvature="0"
       sodipodi:nodetypes="cccc" />
    <path
       style="fill:#403a22;fill-opacity:1;stroke:none"
       d="m -376.97195,835.04798 c 5.81075,-0.3826 10.99715,1.29111 16.49748,2.85334 -5.34692,10.84249 -16.96799,7.23352 -16.49748,-2.85334 z"
       id="path4186"
       inkscape:connector-curvature="0"
       sodipodi:nodetypes="ccc" />
    <path
       inkscape:connector-curvature="0"
       style="color:#000000;fill:#000000;stroke:none;stroke-width:0.30000001;marker:none;visibility:visible;display:inline;overflow:visible;enable-background:accumulate"
       d="m -369.85656,835.50313 c -0.34903,0.26531 -0.57775,0.68329 -0.57775,1.15555 0,0.80225 0.64858,1.45084 1.45083,1.45084 0.80228,0 1.45086,-0.64859 1.45086,-1.45084 0,-0.26322 -0.0702,-0.5061 -0.19257,-0.71901 -0.7093,-0.16155 -1.41635,-0.30927 -2.13137,-0.43654 z"
       id="path4188" />
    <path
       inkscape:connector-curvature="0"
       style="color:#000000;fill:#403a22;fill-opacity:1;stroke:none;stroke-width:0.30000001;marker:none;visibility:visible;display:inline;overflow:visible;enable-background:accumulate"
       d="m -288.99427,828.68544 c -2.78694,0.0554 -5.58909,0.37066 -8.39698,1.05282 0,0.0516 0,0.10228 0,0.15408 0,4.7003 3.8122,8.51249 8.51251,8.51249 4.70031,0 8.51251,-3.81219 8.51251,-8.51249 0,-0.24624 -0.0181,-0.49091 -0.0386,-0.73185 -2.82289,-0.31917 -5.70084,-0.53246 -8.58951,-0.47505 z"
       id="path4220" />
    <path
       inkscape:connector-curvature="0"
       style="color:#000000;fill:#000000;stroke:none;stroke-width:0.06682342;marker:none;visibility:visible;display:inline;overflow:visible;enable-background:accumulate"
       d="m -288.99427,828.68544 c -0.46296,0.009 -0.92271,0.0408 -1.38665,0.0642 -0.23982,0.31752 -0.39804,0.71413 -0.39804,1.14271 0,1.04696 0.85327,1.88738 1.90022,1.88738 1.04695,0 1.90022,-0.84042 1.90022,-1.88738 0,-0.45805 -0.17892,-0.87921 -0.44939,-1.2069 -0.51814,-0.006 -1.04671,-0.0103 -1.56636,0 z"
       id="path4222" />
    <path
       style="fill:#000000;stroke:none"
       d="m -407.47669,710.12378 c 3.71984,-11.53068 6.39421,-12.25769 9.33818,-15.77116 1.39458,-4.27521 2.47888,-6.99885 3.32027,-8.50813 -0.7098,-11.35743 4.31419,-14.18686 9.33818,-17.01626 1.24227,-1.83514 2.41466,-3.72272 5.81041,-3.94278 4.33749,-4.31063 8.08695,-8.85645 13.69604,-12.65844 1.33328,-3.61013 4.57599,-5.07213 8.09306,-6.22545 1.48863,-6.15002 5.53416,-8.78429 9.13069,-12.03589 6.59352,-4.88996 9.5835,-9.69263 22.41164,-14.73359 21.17363,-17.49491 41.00898,-20.09836 60.59447,-19.92146 16.99421,-8.07411 31.10316,-4.60716 44.82332,0.41503 17.84267,-8.2883 28.35106,8.36006 41.08802,17.43128 16.54707,5.46515 33.94265,7.05131 45.23832,36.52269 11.88727,15.87831 17.85874,35.52124 21.16657,56.85919 3.7357,17.77523 3.43503,33.96035 3.32024,50.2187 0.70873,10.67428 2.2453,20.72767 0,33.61747 1.89303,12.19655 -1.26829,21.5453 -6.22547,29.8822 -3.99922,14.8298 -8.96121,17.1439 -13.69599,22.41165 1.80679,-4.90854 3.9751,-9.69874 5.42034,-14.72563 1.78691,-6.21533 3.48787,-12.50748 4.25535,-18.92887 0.7082,-5.92527 -0.59697,-11.98081 0.14672,-17.90173 0.54008,-4.29982 3.96188,-8.14887 3.6684,-12.47251 -2.74672,-40.46491 -37.26338,-30.82851 -48.71616,-9.24434 -1.63222,3.0761 0.38801,5.22018 2.93468,9.97801 -2.06383,0.0635 -3.71992,-0.68439 -4.84226,-2.4945 -0.37959,1.05344 0.19503,4.25397 2.93473,12.32578 -2.94973,-1.4695 -5.48083,-2.8792 -5.7227,-3.96186 -0.29348,3.61948 0.062,7.35151 -0.88043,10.85843 -1.18849,4.42228 -1.99369,9.59168 -5.42922,12.61924 -4.94428,4.35717 -11.71561,9.89431 -18.04843,8.07046 -8.44168,-2.43121 -13.30017,-11.6563 -18.63543,-18.63541 -3.82604,-5.00485 -4.02535,-12.4509 -8.51066,-16.87458 -10.08545,-9.9468 -25.65508,-13.93268 -34.18933,-25.2385 -7.43651,-9.85158 -8.70985,-23.18021 -11.44539,-35.21651 -2.18105,-9.59664 2.41322,-26.62025 1.33718,-36.40261 l -20.4128,22.02253 c -17.95961,19.37588 -34.86174,-1.43963 -48.42269,5.86942 -30.17498,16.26363 -53.19453,32.60667 -72.19385,20.2495 -16.3868,-10.65795 -3.03091,-18.93887 -0.696,-26.44137 z"
       id="path4166"
       inkscape:connector-curvature="0"
       sodipodi:nodetypes="ccccccccccccccccccsssssccccssssssscsssc" />
    <path
       style="fill:#000000;stroke:none"
       d="m -262.21142,912.86024 c -0.0382,0.009 -0.0771,0.017 -0.11554,0.0257 l -0.10271,0.1926 c 2.55936,2.14432 5.42527,4.06854 7.23774,6.87272 2.007,3.10515 2.31248,6.73965 3.76556,10.13942 1.79234,4.19333 4.01418,8.19002 6.15007,12.22306 0.0259,0.009 0.0509,0.017 0.077,0.0257 l -4.77624,-12.45417 c -1.55095,-4.04597 -1.20558,-8.93694 -3.73623,-12.45417 -1.87976,-2.61256 -5.66361,-3.04904 -8.49969,-4.57081 z"
       id="path4288"
       inkscape:connector-curvature="0"
       sodipodi:nodetypes="cccsccccsc" />
    <path
       inkscape:connector-curvature="0"
       style="fill:#000000;fill-opacity:1;fill-rule:nonzero;stroke:none"
       d="m -265.71219,913.86084 c -2.73267,0.6932 -5.43037,1.28361 -7.9726,2.47789 -11.64926,5.4724 -21.83906,14.41056 -34.24258,17.84666 -8.73667,2.42029 -20.39132,3.82539 -26.96264,-1.84887 8.49148,5.61563 17.85122,3.10207 26.34635,0.60347 12.02035,-3.53536 21.92666,-12.20096 33.40804,-17.21755 1.6056,-0.70162 6.4804,-1.40579 9.42343,-1.8616 z"
       id="path4325-1" />
  </g>
</svg>
